<?xml version="1.0" encoding="utf-8"?>
<!-- Generator: Adobe Illustrator 21.1.0, SVG Export Plug-In . SVG Version: 6.00 Build 0)  -->
<svg version="1.1" id="Слой_1" xmlns="http://www.w3.org/2000/svg" x="0px" y="0px"
     viewBox="0 0 640 298" style="enable-background:new 0 0 640 298;" xml:space="preserve">
<style type="text/css">
	.st0{fill-rule:evenodd;clip-rule:evenodd;fill:#FFFFFF;}
	.st1{fill:#FFFFFF;}
	.st2{font-family:'Roboto-Bold';}
	.st3{font-size:100px;}
</style>
<path class="st0" d="M195.1,177l27.1,12l27.1,12c1.1,0.5,1.7,1.9,1.1,3c-0.4,0.8-1.2,1.3-2.1,1.3v0h-3.5v40.8v4.2l-4.2,0h-94h-4.2
	v-4.2v-40.8h-2.5c-1.3,0-2.3-1-2.3-2.3c0-1,0.6-1.8,1.5-2.2l26.9-12l27.1-12C193.9,176.8,194.6,176.8,195.1,177L195.1,177L195.1,177
	z M150.9,205.5v34.8h35.9v-16.7h15.4v16.7h34.3v-34.8h-42.3H150.9L150.9,205.5z M227.1,225.2v9.3h5.5v-9.3H227.1L227.1,225.2z
	 M212.5,225.2c0,3.1,0,6.2,0,9.3c1.8,0,3.7,0,5.5,0c0-3.1,0-6.2,0-9.3C216.2,225.2,214.3,225.2,212.5,225.2L212.5,225.2z
	 M168.6,225.2c0,3.1,0,6.2,0,9.3c1.8,0,3.7,0,5.5,0c0-3.1,0-6.2,0-9.3C172.3,225.2,170.5,225.2,168.6,225.2L168.6,225.2z M154,225.2
	v9.3h5.5v-9.3H154L154,225.2z M227.1,209.1v9.3h5.5v-9.3H227.1L227.1,209.1z M168.6,209.1c0,3.1,0,6.2,0,9.3c1.8,0,3.7,0,5.5,0
	c0-3.1,0-6.2,0-9.3C172.3,209.1,170.5,209.1,168.6,209.1L168.6,209.1z M183.3,209.1c0,3.1,0,6.2,0,9.3c1.8,0,3.7,0,5.5,0
	c0-3.1,0-6.2,0-9.3C186.9,209.1,185.1,209.1,183.3,209.1L183.3,209.1z M197.9,209.1c0,3.1,0,6.2,0,9.3c1.8,0,3.7,0,5.5,0
	c0-3.1,0-6.2,0-9.3C201.5,209.1,199.7,209.1,197.9,209.1L197.9,209.1z M212.5,209.1c0,3.1,0,6.2,0,9.3c1.8,0,3.7,0,5.5,0
	c0-3.1,0-6.2,0-9.3C216.2,209.1,214.3,209.1,212.5,209.1L212.5,209.1z M154,209.1v9.3h5.5v-9.3H154z"/>
<path class="st0" d="M81.2,222.2V248H88v-9.5h0.6l-0.2-1.7l2.5-2.7l3.8-4.6c5.3,0,10.5,0,15.8,0l3.8,4.6l2.5,2.7l-0.2,1.7l0.7,0v9.5
	h5.7v-25.8H81.2L81.2,222.2z M60.9,222.6v15.3h5v-15.3H60.9L60.9,222.6z M58.7,237.9v-15.3h-5.5v15.3H58.7L58.7,237.9z M93.2,248
	v-1.7h18.9v1.7H93.2L93.2,248z M90.5,237.7l6.5,1.8l0.2,1h-6.1L90.5,237.7L90.5,237.7z M93.9,242h17.1l-0.5,2.2c-4,0-12,0-16,0
	L93.9,242L93.9,242z M114.8,237.7l-0.6,2.7h-6.1l0.2-1L114.8,237.7L114.8,237.7z M93.3,234l2.4-3.1c4.6,0,9.2,0,13.8,0l2.4,3.1
	C105.9,234,99.4,234,93.3,234L93.3,234z M127.1,248h4.9v6.3H32V248h5.7v-26.1h-6.9l-1.7-2.8l9.9-10.3V196h-1.8v-4h11.2v4h-1.6v4.7
	l12.6-13L76,204.8l5.3,5.5h44.1l7.9,11.9h-6.1V248L127.1,248z M59.5,203.8c-1.9,0-3.5,1.6-3.5,3.5c0,1.9,1.6,3.5,3.5,3.5
	c1.9,0,3.5-1.6,3.5-3.5C63,205.4,61.4,203.8,59.5,203.8z"/>
<path class="st0" d="M452.8,147.4l51.4,16.5v88.4h-51.4v-96.5l-18.8,9.8v15h-7.5v-17.1v-2.1l1.9-1.1L452.8,147.4L452.8,147.4z
	 M403.5,183.5v68.7h37.7v-64.8l-37.7-12.1l-18.4,8.5l-1.9,1.1v2.1v20.7l-7.3,8.2l-1,1.1v1.4v35h7.5v-33.6l7.3-8.2l1-1.1v-1.4v-20
	L403.5,183.5L403.5,183.5z M409.7,185.7c2.1,0.6,4.2,1.1,6.2,1.6c0,3,0,6,0,9c-2-0.4-4.1-0.8-6.2-1.2
	C409.7,192,409.7,188.9,409.7,185.7L409.7,185.7z M431.6,216.1c0,2.7,0,5.3,0,8c1.5,0,3.1,0,4.5,0c0-2.6,0-5.1,0-7.7
	C434.6,216.3,433.1,216.2,431.6,216.1L431.6,216.1z M421.5,215.5c0,2.9,0,5.8,0,8.7c1.8,0,3.6,0,5.3,0c0-2.8,0-5.5,0-8.3
	C425.1,215.7,423.3,215.6,421.5,215.5L421.5,215.5z M409.7,214.7c2.1,0.1,4.2,0.3,6.2,0.4c0,3,0,6,0,9c-2,0-4.1,0-6.2,0
	C409.7,221,409.7,217.9,409.7,214.7L409.7,214.7z M431.6,203.8c0,2.7,0,5.3,0,8c1.6,0.2,3.1,0.3,4.5,0.4c0-2.6,0-5.2,0-7.7
	C434.6,204.3,433.1,204.1,431.6,203.8L431.6,203.8z M421.5,202.2c0,2.9,0,5.8,0,8.7c1.8,0.2,3.6,0.4,5.3,0.5c0-2.8,0-5.6,0-8.3
	C425.1,202.7,423.3,202.4,421.5,202.2L421.5,202.2z M409.7,200.2c2.1,0.4,4.2,0.7,6.2,1c0,3,0,6,0,9c-2-0.2-4.1-0.4-6.2-0.6
	C409.7,206.5,409.7,203.4,409.7,200.2L409.7,200.2z M431.6,191.5c0,2.7,0,5.3,0,8c1.5,0.3,3.1,0.6,4.5,0.9c0-2.6,0-5.2,0-7.7
	C434.6,192.3,433.1,191.9,431.6,191.5L431.6,191.5z M421.5,188.8c0,2.9,0,5.8,0,8.7c1.8,0.4,3.6,0.7,5.3,1c0-2.8,0-5.6,0-8.3
	C425.1,189.8,423.3,189.3,421.5,188.8L421.5,188.8z M461.2,161.5c0,4.3,0,8.6,0,12.9c2.9,0.6,5.7,1.1,8.5,1.7c0-4.1,0-8.2,0-12.3
	C466.9,163,464.1,162.3,461.2,161.5L461.2,161.5z M491,203c0,3.6,0,7.3,0,10.9c2.1,0,4.2,0,6.2,0c0-3.5,0-7,0-10.5
	C495.1,203.3,493.1,203.1,491,203L491,203z M477.2,202.1c0,3.9,0,7.9,0,11.8c2.5,0,4.9,0,7.2,0c0-3.8,0-7.6,0-11.3
	C482.1,202.4,479.7,202.3,477.2,202.1L477.2,202.1z M461.2,201.1c0,4.3,0,8.6,0,12.9c2.9,0,5.7,0,8.5,0c0-4.1,0-8.2,0-12.3
	C466.9,201.4,464.1,201.3,461.2,201.1L461.2,201.1z M491,186.2c0,3.6,0,7.3,0,10.9c2.1,0.2,4.2,0.4,6.2,0.6c0-3.5,0-7,0-10.5
	C495.1,186.9,493.1,186.5,491,186.2L491,186.2z M477.2,183.9c0,3.9,0,7.9,0,11.8c2.5,0.2,4.9,0.5,7.2,0.7c0-3.8,0-7.6,0-11.4
	C482.1,184.7,479.7,184.3,477.2,183.9L477.2,183.9z M461.2,181.3c0,4.3,0,8.6,0,12.9c2.9,0.3,5.7,0.6,8.5,0.8c0-4.1,0-8.2,0-12.3
	C466.9,182.2,464.1,181.8,461.2,181.3L461.2,181.3z M491,169.4c0,3.6,0,7.3,0,10.9c2.1,0.4,4.2,0.8,6.2,1.2c0-3.5,0-7,0-10.5
	C495.1,170.5,493.1,169.9,491,169.4L491,169.4z M477.2,165.7c0,3.9,0,7.9,0,11.8c2.5,0.5,4.9,1,7.2,1.4c0-3.8,0-7.6,0-11.4
	C482.1,167,479.7,166.4,477.2,165.7z"/>
<path class="st0" d="M530.8,199.2h49.7l22.6,31.2h-6V250h5.5v5.5h-94.9V250h7.1v-16.8h-4.6l-2.7-4.8L530.8,199.2L530.8,199.2z
	 M590.2,250v-19.6h-27.9V250h3.8v-17.8h11.3V250H590.2L590.2,250z M555.4,250v-19.6h-2.1l-18.5-25.6l-17.1,21.6h0.4h3.4V250H555.4
	L555.4,250z M531.4,230.2v13.9h9.4v-13.9H531.4z"/>
<path class="st0" d="M245.3,252.1h9v-83.7v-2.5l2.5-0.7l35-9.4l4.2-1.1l17.6,11.7v85.7h3V146.7v-2.5l2.5-0.7l35-9.4l4.2-1.1
	l17.6,11.6v114.3h-17.6h-6.6V141.7l-28.4,7.6v103.4h5.6v6.6h-36.1h-3.3V256v-92.6l-28.4,7.6v84.4v3.3h-3.3h-12.3V252.1L245.3,252.1z
	 M328.1,205.8c0,4.3,0,8.6,0,12.8c1.2,0,2.3,0,3.5,0c1.2,0,2.4,0,3.6,0c0-4.4,0-8.8,0-13.2c-1.2,0.1-2.4,0.1-3.6,0.2
	C330.5,205.6,329.3,205.7,328.1,205.8L328.1,205.8z M339.4,151.1c0,4.5,0,8.9,0,13.4c1.3-0.2,2.5-0.5,3.8-0.7
	c1.3-0.2,2.6-0.5,3.9-0.7c0-4.6,0-9.2,0-13.7c-1.3,0.3-2.6,0.6-3.9,0.9C341.9,150.5,340.7,150.8,339.4,151.1L339.4,151.1z
	 M328.1,153.7c0,4.3,0,8.6,0,12.9c1.2-0.2,2.3-0.4,3.5-0.7c1.2-0.2,2.4-0.4,3.6-0.7c0-4.4,0-8.8,0-13.2c-1.2,0.3-2.4,0.6-3.6,0.8
	C330.5,153.1,329.3,153.4,328.1,153.7L328.1,153.7z M339.4,169.1c0,4.5,0,8.9,0,13.4c1.3-0.2,2.5-0.3,3.8-0.5
	c1.3-0.2,2.6-0.3,3.9-0.5c0-4.6,0-9.1,0-13.7c-1.3,0.2-2.6,0.4-3.9,0.7C341.9,168.7,340.7,168.9,339.4,169.1L339.4,169.1z
	 M328.1,171c0,4.3,0,8.6,0,12.8c1.2-0.1,2.3-0.3,3.5-0.4c1.2-0.1,2.4-0.3,3.6-0.5c0-4.4,0-8.8,0-13.2c-1.2,0.2-2.4,0.4-3.6,0.6
	C330.5,170.6,329.3,170.8,328.1,171L328.1,171z M339.4,187.2c0,4.5,0,8.9,0,13.4c1.3-0.1,2.5-0.2,3.8-0.2c1.3-0.1,2.6-0.2,3.9-0.2
	c0-4.6,0-9.1,0-13.7c-1.3,0.1-2.6,0.3-3.9,0.4C341.9,186.9,340.7,187,339.4,187.2L339.4,187.2z M328.1,188.4c0,4.3,0,8.6,0,12.8
	c1.2-0.1,2.3-0.1,3.5-0.2c1.2-0.1,2.4-0.2,3.6-0.2c0-4.4,0-8.8,0-13.2c-1.2,0.1-2.4,0.3-3.6,0.4
	C330.5,188.2,329.3,188.3,328.1,188.4L328.1,188.4z M339.4,205.2c0,4.5,0,8.9,0,13.4c1.3,0,2.5,0,3.8,0c1.3,0,2.6,0,3.9,0
	c0-4.6,0-9.1,0-13.7c-1.3,0.1-2.6,0.1-3.9,0.2C341.9,205.1,340.7,205.2,339.4,205.2L339.4,205.2z M265.5,228.8c0,4.3,0,8.6,0,12.8
	c1.2,0,2.3,0,3.5,0c1.2,0,2.4,0,3.6,0c0-4.4,0-8.8,0-13.2c-1.2,0.1-2.4,0.1-3.6,0.2C267.9,228.7,266.7,228.8,265.5,228.8
	L265.5,228.8z M276.8,174.1c0,4.5,0,8.9,0,13.4c1.3-0.2,2.5-0.5,3.8-0.7c1.3-0.2,2.6-0.5,3.9-0.7c0-4.6,0-9.2,0-13.7
	c-1.3,0.3-2.6,0.6-3.9,0.9C279.3,173.5,278.1,173.8,276.8,174.1L276.8,174.1z M265.5,176.7c0,4.3,0,8.6,0,12.9
	c1.2-0.2,2.3-0.4,3.5-0.7c1.2-0.2,2.4-0.4,3.6-0.7c0-4.4,0-8.8,0-13.2c-1.2,0.3-2.4,0.6-3.6,0.8
	C267.9,176.2,266.7,176.5,265.5,176.7L265.5,176.7z M276.8,192.2c0,4.5,0,8.9,0,13.4c1.3-0.2,2.5-0.3,3.8-0.5
	c1.3-0.2,2.6-0.3,3.9-0.5c0-4.6,0-9.1,0-13.7c-1.3,0.2-2.6,0.4-3.9,0.7C279.3,191.8,278.1,192,276.8,192.2L276.8,192.2z
	 M265.5,194.1c0,4.3,0,8.6,0,12.8c1.2-0.1,2.3-0.3,3.5-0.4c1.2-0.1,2.4-0.3,3.6-0.5c0-4.4,0-8.8,0-13.2c-1.2,0.2-2.4,0.4-3.6,0.6
	C267.9,193.7,266.7,193.9,265.5,194.1L265.5,194.1z M276.8,210.2c0,4.5,0,8.9,0,13.4c1.3-0.1,2.5-0.2,3.8-0.2
	c1.3-0.1,2.6-0.2,3.9-0.2c0-4.6,0-9.1,0-13.7c-1.3,0.1-2.6,0.3-3.9,0.4C279.3,210,278.1,210.1,276.8,210.2L276.8,210.2z
	 M265.5,211.5c0,4.3,0,8.6,0,12.8c1.2-0.1,2.3-0.1,3.5-0.2c1.2-0.1,2.4-0.2,3.6-0.2c0-4.4,0-8.8,0-13.2c-1.2,0.1-2.4,0.3-3.6,0.4
	C267.9,211.2,266.7,211.3,265.5,211.5L265.5,211.5z M276.8,228.3c0,4.5,0,8.9,0,13.4c1.3,0,2.5,0,3.8,0c1.3,0,2.6,0,3.9,0
	c0-4.6,0-9.1,0-13.7c-1.3,0.1-2.6,0.1-3.9,0.2C279.3,228.2,278.1,228.2,276.8,228.3z"/>
<rect x="15.5" y="250.2" class="st0" width="609" height="10.8"/>
<text transform="matrix(1 0 0 1 86.1455 111.2705)" class="st1 st2 st3">МТС МКД</text>
</svg>
